<svg width="32" height="32" viewBox="0 0 32 32" fill="none" xmlns="http://www.w3.org/2000/svg">
<g clip-path="url(#clip0_64_44)">
<rect width="32" height="32" rx="7" fill="black"/>
<rect width="32" height="32" fill="url(#paint0_linear_64_44)"/>
<path d="M16 2.5C23.4558 2.5 29.5 8.54416 29.5 16C29.5 23.4558 23.4558 29.5 16 29.5C8.54416 29.5 2.5 23.4558 2.5 16C2.5 8.54416 8.54416 2.5 16 2.5ZM16.3369 8.43652C16.2833 8.04472 15.7167 8.0447 15.6631 8.43652L15.4062 10.3174C15.0446 12.9637 12.9637 15.0446 10.3174 15.4062L8.43652 15.6631C8.04483 15.7168 8.04484 16.2832 8.43652 16.3369L10.3174 16.5938C12.9637 16.9554 15.0446 19.0363 15.4062 21.6826L15.6631 23.5635C15.7167 23.9553 16.2833 23.9553 16.3369 23.5635L16.5938 21.6826C16.9554 19.0364 19.0364 16.9554 21.6826 16.5938L23.5635 16.3369C23.9554 16.2834 23.9554 15.7166 23.5635 15.6631L21.6826 15.4062C19.0364 15.0446 16.9554 12.9636 16.5938 10.3174L16.3369 8.43652Z" fill="white"/>
</g>
<defs>
<linearGradient id="paint0_linear_64_44" x1="16" y1="0" x2="16" y2="32" gradientUnits="userSpaceOnUse">
<stop stop-color="#373737"/>
<stop offset="1"/>
</linearGradient>
<clipPath id="clip0_64_44">
<rect width="32" height="32" rx="7" fill="white"/>
</clipPath>
</defs>
</svg>
