<svg width="36" height="36" viewBox="0 0 36 36" fill="none" xmlns="http://www.w3.org/2000/svg">
<g clip-path="url(#clip0_64_44)">
<rect y="3.76013" width="32" height="32" rx="7" transform="rotate(-6 0 3.76013)" fill="black"/>
<rect y="3.76013" width="32" height="32" transform="rotate(-6 0 3.76013)" fill="url(#paint0_linear_64_44)"/>
<path d="M16.1737 4.57397C23.5887 3.79463 30.2316 9.17388 31.0109 16.5889C31.7903 24.0039 26.411 30.6467 18.996 31.4261C11.581 32.2054 4.93816 26.8262 4.15881 19.4112C3.37947 11.9962 8.75873 5.35332 16.1737 4.57397ZM17.1293 10.4428C17.0351 10.0587 16.4715 10.1179 16.4592 10.5132L16.4004 12.4106C16.3173 15.0802 14.4653 17.3673 11.8713 18.0035L10.0276 18.4555C9.64367 18.5499 9.70288 19.1132 10.098 19.1257L11.9954 19.1845C14.6651 19.2675 16.9521 21.1196 17.5884 23.7136L18.0404 25.5573C18.1346 25.9414 18.6982 25.8821 18.7105 25.4868L18.7694 23.5894C18.8524 20.9199 20.7045 18.6328 23.2984 17.9965L25.1421 17.5445C25.5263 17.4503 25.467 16.8866 25.0717 16.8744L23.1743 16.8155C20.5047 16.7324 18.2176 14.8804 17.5814 12.2865L17.1293 10.4428Z" fill="white"/>
</g>
<defs>
<linearGradient id="paint0_linear_64_44" x1="16" y1="3.76013" x2="16" y2="35.7601" gradientUnits="userSpaceOnUse">
<stop stop-color="#373737"/>
<stop offset="1"/>
</linearGradient>
<clipPath id="clip0_64_44">
<rect y="3.76013" width="32" height="32" rx="7" transform="rotate(-6 0 3.76013)" fill="white"/>
</clipPath>
</defs>
</svg>
