<svg width="32" height="32" viewBox="0 0 32 32" fill="none" xmlns="http://www.w3.org/2000/svg">
<g clip-path="url(#clip0_65_64)">
<path d="M5.78368 16.4159C5.78302 15.7336 5.85132 15.0529 5.98751 14.3845H0.127396C0.0429305 15.0584 0.000383113 15.7368 1.98005e-06 16.4159C-0.00160268 19.6449 0.97215 22.7982 2.7922 25.4579C4.61226 28.1175 7.19269 30.1579 10.1915 31.3087L13.1471 26.1821C11.0266 25.589 9.15819 24.3125 7.82814 22.5484C6.49809 20.7843 5.7799 18.63 5.78368 16.4159Z" fill="black"/>
<path d="M5.82202 4.07351L8.77755 9.20011C10.6576 7.33261 13.1932 6.28545 15.8352 6.28545C18.4771 6.28545 21.0128 7.33261 22.8928 9.20011L25.842 4.07351C23.016 1.75256 19.48 0.484863 15.832 0.484863C12.184 0.484863 8.64794 1.75256 5.82202 4.07351Z" fill="#743BFF"/>
<path d="M31.5359 14.3845H25.6822C25.8132 15.0536 25.8793 15.734 25.8797 16.4159C25.878 18.0732 25.4704 19.7045 24.6927 21.1654C23.9149 22.6263 22.7912 23.8717 21.4208 24.7915C19.7724 23.6718 18.4913 22.0853 17.7396 20.2328C16.9878 18.3802 16.7993 16.345 17.1978 14.3845H11.3376C11.2532 15.0584 11.2106 15.7368 11.2102 16.4159C11.2087 19.6449 12.1824 22.7982 14.0024 25.4579C15.8225 28.1175 18.4029 30.1579 21.4017 31.3087C24.4006 30.1579 26.981 28.1175 28.8011 25.4579C30.6211 22.7982 31.5949 19.6449 31.5932 16.4159C31.6193 15.7382 31.6001 15.0596 31.5359 14.3845Z" fill="black"/>
</g>
<defs>
<clipPath id="clip0_65_64">
<rect width="32" height="31.0303" fill="white" transform="translate(0 0.484863)"/>
</clipPath>
</defs>
</svg>
