<svg width="36" height="36" viewBox="0 0 36 36" fill="none" xmlns="http://www.w3.org/2000/svg">
<g clip-path="url(#clip0_65_64)">
<path d="M7.3303 17.3457C7.40098 16.667 7.54004 15.9972 7.74536 15.3467L1.91735 14.7341C1.76291 15.3955 1.64968 16.0657 1.57831 16.7411C1.23919 19.9523 1.87801 23.19 3.41008 26.0254C4.94216 28.8607 7.29517 31.1596 10.1573 32.6176L13.6325 27.8281C11.5857 27.0165 9.86091 25.5517 8.72255 23.6582C7.58418 21.7648 7.09511 19.5473 7.3303 17.3457Z" fill="black"/>
<path d="M8.65845 5.07485L11.0619 10.4823C13.1269 8.82155 15.758 8.04516 18.3856 8.32133C21.013 8.59749 23.4253 9.90396 25.0998 11.9577L28.5687 7.1675C26.0008 4.56387 22.6167 2.93351 18.9887 2.55219C15.3607 2.17087 11.7115 3.062 8.65845 5.07485Z" fill="#743BFF"/>
<path d="M33.1538 18.0172L27.3321 17.4053C27.3925 18.0844 27.3871 18.768 27.3162 19.4462C27.1414 21.0942 26.5654 22.674 25.6393 24.0456C24.713 25.4172 23.4653 26.5384 22.0063 27.3099C20.484 26.024 19.3757 24.3122 18.8217 22.3913C18.2677 20.4702 18.293 18.4265 18.8942 16.5185L13.0662 15.9059C12.9117 16.5672 12.7985 17.2375 12.7271 17.9129C12.388 21.124 13.0269 24.3618 14.5589 27.1971C16.091 30.0324 18.444 32.3314 21.3061 33.7894C24.4088 32.9583 27.1883 31.1988 29.2765 28.744C31.3646 26.2892 32.6626 23.255 32.9985 20.0435C33.0953 19.3722 33.1471 18.6953 33.1538 18.0172Z" fill="black"/>
</g>
<defs>
<clipPath id="clip0_65_64">
<rect width="32" height="31.0303" fill="white" transform="translate(3.24353 0.897339) rotate(6)"/>
</clipPath>
</defs>
</svg>
